<svg width="64" height="64" viewBox="0 0 64 64" fill="none" xmlns="http://www.w3.org/2000/svg">
  <defs>
    <linearGradient id="bg" x1="8" y1="6" x2="56" y2="58" gradientUnits="userSpaceOnUse">
      <stop offset="0" stop-color="#33E06F"/>
      <stop offset="1" stop-color="#1FAF56"/>
    </linearGradient>
  </defs>
  <g>
    <rect x="4" y="4" width="56" height="56" rx="14" fill="url(#bg)"/>
    <path d="M32.1 15.5C22.7 15.5 15 22.9 15 32C15 35.3 16 38.4 17.9 41.1L15.3 49L23.5 46.5C26 47.8 28.9 48.5 32.1 48.5C41.5 48.5 49.1 41.1 49.1 32C49.1 22.9 41.5 15.5 32.1 15.5Z" stroke="white" stroke-width="3.6" stroke-linecap="round" stroke-linejoin="round"/>
    <path d="M27.8 23.9C28.3 22.9 28.9 22.9 29.7 22.9C30.3 22.9 31 22.9 31.5 23C32 23.1 32.5 23.4 32.9 24.2C33.4 25.3 34.3 27.8 34.5 28.2C34.7 28.6 34.7 29.1 34.4 29.5C34.2 29.8 34 30.1 33.6 30.5C33.3 30.8 33 31 32.7 31.4C32.4 31.7 32 32.1 32.4 32.7C32.8 33.4 34.1 35.5 36.1 37.2C38.7 39.5 40.8 40.2 41.6 40.5C42.2 40.8 42.6 40.7 43 40.3C43.4 39.8 44.6 38.5 45.1 37.8C45.5 37.2 45.9 37.1 46.5 37.4C47.1 37.6 50.3 39.1 50.9 39.4C51.5 39.7 51.9 39.9 52.1 40.2C52.2 40.6 52.2 42.2 51.4 43.6C50.7 44.8 48.4 46.4 47.3 46.6C46.2 46.7 44.8 46.9 39.6 44.6C35.2 42.7 32.3 39.8 31.3 38.7C30.4 37.8 28 35.2 26.8 31.9C25.5 28.5 25.8 25.8 26.4 24.7C26.8 24.4 27.1 24.1 27.8 23.9Z" fill="white"/>
  </g>
</svg>
